<svg xmlns="http://www.w3.org/2000/svg" width="800" height="420" viewBox="0 0 800 420" role="img" aria-labelledby="t d">
  <title id="t">Щанд с авточасти</title>
  <desc id="d">Семпла илюстрация на подредени продукти в магазин за авточасти.</desc>
  <rect width="800" height="420" fill="#ecfdf5"/>
  <rect x="60" y="50" width="680" height="320" rx="18" fill="#ffffff" stroke="#cfe9db"/>
  <rect x="120" y="110" width="560" height="12" fill="#6b7280"/>
  <rect x="120" y="180" width="560" height="12" fill="#6b7280"/>
  <rect x="120" y="250" width="560" height="12" fill="#6b7280"/>
  <rect x="140" y="72" width="90" height="38" rx="8" fill="#60a5fa"/>
  <rect x="250" y="76" width="70" height="34" rx="8" fill="#34d399"/>
  <rect x="350" y="74" width="110" height="36" rx="8" fill="#f59e0b"/>
  <rect x="490" y="76" width="80" height="34" rx="8" fill="#a78bfa"/>
  <rect x="590" y="76" width="70" height="34" rx="8" fill="#f87171"/>
  <rect x="150" y="140" width="60" height="40" rx="6" fill="#93c5fd"/>
  <rect x="230" y="142" width="110" height="38" rx="6" fill="#86efac"/>
  <rect x="360" y="142" width="80" height="38" rx="6" fill="#fdba74"/>
  <rect x="460" y="142" width="90" height="38" rx="6" fill="#c4b5fd"/>
  <rect x="570" y="142" width="70" height="38" rx="6" fill="#fca5a5"/>
  <text x="120" y="330" font-family="Arial, sans-serif" font-size="30" fill="#065f46">Подредени авточасти</text>
</svg>
