<svg xmlns="http://www.w3.org/2000/svg" viewBox="0 0 900 450" role="img" aria-labelledby="title desc">
  <title id="title">Продажби за 2025 година</title>
  <desc id="desc">Колонна графика с месечни продажби през 2025 година.</desc>
  <rect width="900" height="450" fill="#ffffff"/>
  <rect x="70" y="40" width="790" height="340" fill="#f8fbff" stroke="#d7e1ea"/>

  <line x1="70" y1="380" x2="860" y2="380" stroke="#16202a" stroke-width="2"/>
  <line x1="70" y1="40" x2="70" y2="380" stroke="#16202a" stroke-width="2"/>

  <g stroke="#d7e1ea" stroke-width="1">
    <line x1="70" y1="295" x2="860" y2="295"/>
    <line x1="70" y1="210" x2="860" y2="210"/>
    <line x1="70" y1="125" x2="860" y2="125"/>
    <line x1="70" y1="40" x2="860" y2="40"/>
  </g>

  <g fill="#4d5b68" font-size="13" font-family="Arial, Helvetica, sans-serif">
    <text x="35" y="384">0</text>
    <text x="26" y="299">50</text>
    <text x="20" y="214">100</text>
    <text x="20" y="129">150</text>
    <text x="20" y="44">200</text>
  </g>

  <g fill="#0f4c81">
    <rect x="95" y="218.5" width="44" height="161.5"/>
    <rect x="158" y="193" width="44" height="187"/>
    <rect x="221" y="162.4" width="44" height="217.6"/>
    <rect x="284" y="148.8" width="44" height="231.2"/>
    <rect x="347" y="125" width="44" height="255"/>
    <rect x="410" y="99.5" width="44" height="280.5"/>
    <rect x="473" y="57" width="44" height="323"/>
    <rect x="536" y="70.6" width="44" height="309.4"/>
    <rect x="599" y="91" width="44" height="289"/>
    <rect x="662" y="114.8" width="44" height="265.2"/>
    <rect x="725" y="135.2" width="44" height="244.8"/>
    <rect x="788" y="203.2" width="44" height="176.8"/>
  </g>

  <g fill="#16202a" font-size="12" font-family="Arial, Helvetica, sans-serif" text-anchor="middle">
    <text x="117" y="400">Ян</text>
    <text x="180" y="400">Фев</text>
    <text x="243" y="400">Мар</text>
    <text x="306" y="400">Апр</text>
    <text x="369" y="400">Май</text>
    <text x="432" y="400">Юни</text>
    <text x="495" y="400">Юли</text>
    <text x="558" y="400">Авг</text>
    <text x="621" y="400">Сеп</text>
    <text x="684" y="400">Окт</text>
    <text x="747" y="400">Ное</text>
    <text x="810" y="400">Дек</text>
  </g>
</svg>
