<svg xmlns="http://www.w3.org/2000/svg" viewBox="0 0 1200 800" role="img" aria-labelledby="title desc">
  <title id="title">Преносим компресор за гуми</title>
  <desc id="desc">Илюстрация на компресор за гуми с маркуч и манометър.</desc>
  <defs>
    <linearGradient id="bg" x1="0" y1="0" x2="1" y2="1">
      <stop offset="0" stop-color="#e8f1fb"/>
      <stop offset="1" stop-color="#f7fbff"/>
    </linearGradient>
    <linearGradient id="body" x1="0" y1="0" x2="0" y2="1">
      <stop offset="0" stop-color="#1d5e96"/>
      <stop offset="1" stop-color="#123f66"/>
    </linearGradient>
  </defs>

  <rect width="1200" height="800" fill="url(#bg)"/>
  <rect x="120" y="620" width="960" height="70" rx="18" fill="#dbe8f5"/>

  <rect x="260" y="330" width="520" height="250" rx="40" fill="url(#body)"/>
  <rect x="300" y="390" width="180" height="80" rx="12" fill="#0f3150"/>
  <rect x="500" y="390" width="220" height="80" rx="12" fill="#0f3150"/>

  <circle cx="840" cy="390" r="85" fill="#ffffff" stroke="#173d60" stroke-width="16"/>
  <circle cx="840" cy="390" r="10" fill="#173d60"/>
  <line x1="840" y1="390" x2="884" y2="350" stroke="#f28c28" stroke-width="10" stroke-linecap="round"/>

  <path d="M780 470 C920 470, 960 520, 990 590" fill="none" stroke="#1a3650" stroke-width="18" stroke-linecap="round"/>
  <rect x="985" y="580" width="90" height="22" rx="8" fill="#f28c28"/>

  <circle cx="360" cy="610" r="42" fill="#1a3650"/>
  <circle cx="710" cy="610" r="42" fill="#1a3650"/>

  <text x="520" y="260" text-anchor="middle" font-family="Arial, sans-serif" font-size="54" font-weight="700" fill="#123f66">AIRMAX COMPACT 12V</text>
  <text x="520" y="315" text-anchor="middle" font-family="Arial, sans-serif" font-size="32" fill="#3f5f7a">Преносим компресор за гуми</text>
</svg>
